# xmcd CD database file
#
# Track frame offsets:
#	150
#	20700
#	45825
#	74175
#	99225
#	123525
#	155550
#
# Disc length: 2286 seconds
#
# Revision: 0
# Processed by: cddbd v1.5.2PL0 Copyright (c) Steve Scherf et al.
# Submitted via: CDex 1.70beta3
#
DISCID=5b08ec07
DTITLE=Orquesta Libre and Yanagihara Yoichiro - うたのかたち
DYEAR=2012
DGENRE=Jazz
TTITLE0=Alabama Song
TTITLE1=Die Ballade von der sexuellen Hrigkeit (Ballad of Sexual Dependency)
TTITLE2=Die Moritat von Mackie Messer (The Ballad of Mack the Knife) (live ver.)
TTITLE3=Ballade ber die Frage Wovon lebt der Mensch (2nd Finale of Threepenny Opera)
TTITLE4=Ev’rytime We Say Goodbye
TTITLE5=Alfie
TTITLE6=Smile
EXTD=YEAR: 2012
EXTT0=
EXTT1=
EXTT2=
EXTT3=
EXTT4=
EXTT5=
EXTT6=
PLAYORDER=
